<?xml version="1.0" encoding="utf-8"?>
<!-- Generator: Adobe Illustrator 25.2.1, SVG Export Plug-In . SVG Version: 6.00 Build 0)  -->
<svg version="1.1" id="图层_1" xmlns="http://www.w3.org/2000/svg" xmlns:xlink="http://www.w3.org/1999/xlink" x="0px" y="0px"
	 viewBox="0 0 16 16" style="enable-background:new 0 0 16 16;" xml:space="preserve">
<style type="text/css">
	.st0{fill-rule:evenodd;clip-rule:evenodd;fill:#F28552;}
</style>
<path class="st0" d="M7.3,2.3C7.3,2,7.6,1.7,8,1.7c0.4,0,0.7,0.3,0.7,0.7v6.7l1.9-1.9c0.3-0.3,0.7-0.3,0.9,0c0.3,0.3,0.3,0.7,0,0.9
	l-3.1,3.1c-0.3,0.3-0.7,0.3-0.9,0c0,0,0,0,0,0L4.5,8.1c-0.3-0.3-0.3-0.7,0-0.9s0.7-0.3,0.9,0l0,0l1.9,1.9L7.3,2.3z M3.3,13v-0.7
	c0-0.4-0.3-0.7-0.6-0.7S2,11.9,2,12.3c0,0,0,0,0,0.1v1.3c0,0.4,0.3,0.7,0.7,0.7h10.7c0.4,0,0.7-0.3,0.7-0.7v-1.3
	c0-0.4-0.3-0.7-0.7-0.6c-0.3,0-0.6,0.3-0.6,0.6V13H3.3z"/>
</svg>
